<?xml version="1.0" encoding="iso-8859-1"?>
<!-- Uploaded to: SVG Repo, www.svgrepo.com, Generator: SVG Repo Mixer Tools -->
<svg height="800px" width="800px" version="1.1" id="Layer_1" xmlns="http://www.w3.org/2000/svg" xmlns:xlink="http://www.w3.org/1999/xlink" 
	 viewBox="0 0 512.001 512.001" xml:space="preserve">
<path style="fill:#EEE5DD;" d="M341.517,512c22.967-0.629,40.981-20.051,40.981-43.027v-37.178l0,0
	c46.575,0,84.332-37.757,84.332-84.332V210.83c0-18.954-2.515-37.315-7.206-54.789C435.502,66.171,353.485,0,256,0l0,0
	C158.515,0,76.498,66.169,52.376,156.042l-0.173,0.631c-4.586,17.282-7.033,35.433-7.033,54.158v136.632
	c0,46.575,37.757,84.332,84.332,84.332l0,0v37.18c0,22.976,18.014,42.398,40.981,43.027h171.035V512z"/>
<g>
	<circle style="fill:#1E252B;" cx="155.095" cy="346.726" r="24.517"/>
	<circle style="fill:#1E252B;" cx="356.905" cy="346.726" r="24.517"/>
</g>
<g>
	<path style="fill:#20272E;" d="M264.932,360.354c-4.694-5.5-13.169-5.5-17.863,0c-13.522,15.841-35.436,52.248-13.817,52.248
		h45.499C300.366,412.602,278.452,376.195,264.932,360.354z"/>
	<path style="fill:#20272E;" d="M255.999,435.898c-6.239,0-11.294,5.057-11.294,11.294V512l0,0h22.589l0,0v-64.808
		C267.293,440.955,262.238,435.898,255.999,435.898z"/>
	<path style="fill:#20272E;" d="M210.239,512v-64.808c0-6.238-5.055-11.294-11.294-11.294c-6.239,0-11.294,5.057-11.294,11.294V512
		l0,0H210.239L210.239,512z"/>
	<path style="fill:#20272E;" d="M313.055,435.898c-6.239,0-11.294,5.057-11.294,11.294V512l0,0h22.589l0,0v-64.808
		C324.35,440.955,319.294,435.898,313.055,435.898z"/>
	<path style="opacity:0.3;fill:#20272E;enable-background:new    ;" d="M459.624,156.042C435.502,66.171,353.485,0,256,0l0,0l0,0
		v512h85.519c22.967-0.629,40.981-20.051,40.981-43.027v-37.178l0,0c46.575,0,84.332-37.757,84.332-84.332V210.83
		C466.83,191.877,464.314,173.515,459.624,156.042z"/>
</g>
</svg>